<?xml version="1.0" encoding="UTF-8" standalone="no"?>
<!-- Created with Inkscape (http://www.inkscape.org/) -->

<svg
   xmlns:dc="http://purl.org/dc/elements/1.1/"
   xmlns:cc="http://creativecommons.org/ns#"
   xmlns:rdf="http://www.w3.org/1999/02/22-rdf-syntax-ns#"
   xmlns:svg="http://www.w3.org/2000/svg"
   xmlns="http://www.w3.org/2000/svg"
   xmlns:sodipodi="http://sodipodi.sourceforge.net/DTD/sodipodi-0.dtd"
   xmlns:inkscape="http://www.inkscape.org/namespaces/inkscape"
   width="800mm"
   height="600mm"
   viewBox="0 0 3023.622 2267.7165"
   version="1.1"
   id="SVGRoot"
   inkscape:version="0.92.4 (5da689c313, 2019-01-14)"
   sodipodi:docname="joystick-planche1.svg">
  <defs
     id="defs897" />
  <sodipodi:namedview
     id="base"
     pagecolor="#ffffff"
     bordercolor="#666666"
     borderopacity="1.0"
     inkscape:pageopacity="0.0"
     inkscape:pageshadow="2"
     inkscape:zoom="0.34"
     inkscape:cx="1743.2799"
     inkscape:cy="1273.6651"
     inkscape:document-units="mm"
     inkscape:current-layer="layer1"
     showgrid="false"
     inkscape:window-width="1366"
     inkscape:window-height="707"
     inkscape:window-x="0"
     inkscape:window-y="0"
     inkscape:window-maximized="1"
     units="mm" />
  <metadata
     id="metadata900">
    <rdf:RDF>
      <cc:Work
         rdf:about="">
        <dc:format>image/svg+xml</dc:format>
        <dc:type
           rdf:resource="http://purl.org/dc/dcmitype/StillImage" />
        <dc:title></dc:title>
      </cc:Work>
    </rdf:RDF>
  </metadata>
  <g
     inkscape:label="Calque 1"
     inkscape:groupmode="layer"
     id="layer1"
     transform="translate(0,1667.7165)">
    <g
       id="g1011"
       style="stroke:#ff0000">
      <path
         d="m 2621.2363,-1551.4271 v 56.6929 c 0,0.2067 0.1625,0.3838 0.3839,0.3838 h 18.8976 c -0.2067,0 -0.3838,-0.1624 -0.3838,-0.3838 v 37.7953 c 0,-0.2067 0.1625,-0.3839 0.3838,-0.3839 h -18.8976 c -0.2068,0 -0.3839,0.1624 -0.3839,0.3839 v 37.7952 c 0,0.2067 0.1625,0.3839 0.3839,0.3839 h 18.8976 c -0.2067,0 -0.3838,-0.1624 -0.3838,-0.3839 v 37.7953 c 0,-0.2067 0.1625,-0.3838 0.3838,-0.3838 h -18.8976 c -0.2068,0 -0.3839,0.1624 -0.3839,0.3838 v 37.7953 c 0,0.2067 0.1625,0.3838 0.3839,0.3838 h 18.8976 c -0.2067,0 -0.3838,-0.1624 -0.3838,-0.3838 v 37.7953 c 0,-0.2067 0.1625,-0.3839 0.3838,-0.3839 h -18.8976 c -0.2068,0 -0.3839,0.1624 -0.3839,0.3839 v 37.7952 c 0,0.2067 0.1625,0.3839 0.3839,0.3839 h 18.8976 c -0.2067,0 -0.3838,-0.1624 -0.3838,-0.3839 v 37.7953 c 0,-0.2067 0.1625,-0.3838 0.3838,-0.3838 h -18.8976 c -0.2068,0 -0.3839,0.1625 -0.3839,0.3838 v 37.7953 c 0,0.2067 0.1625,0.3838 0.3839,0.3838 h 18.8976 c -0.2067,0 -0.3838,-0.1625 -0.3838,-0.3838 v 37.7953 c 0,-0.2068 0.1625,-0.3839 0.3838,-0.3839 h -18.8976 c -0.2068,0 -0.3839,0.1625 -0.3839,0.3839 v 37.7952 c 0,0.2068 0.1625,0.3839 0.3839,0.3839 h 18.8976 c -0.2067,0 -0.3838,-0.1625 -0.3838,-0.3839 v 37.7953 c 0,-0.2067 0.1625,-0.3838 0.3838,-0.3838 h -18.8976 c -0.2068,0 -0.3839,0.1625 -0.3839,0.3838 v 37.7953 c 0,0.2067 0.1625,0.3838 0.3839,0.3838 h 18.8976 c -0.2067,0 -0.3838,-0.1625 -0.3838,-0.3838 v 37.7953 c 0,-0.2068 0.1625,-0.3839 0.3838,-0.3839 h -18.8976 c -0.2068,0 -0.3839,0.1625 -0.3839,0.3839 v 37.79524 c 0,0.2068 0.1625,0.3839 0.3839,0.3839 h 18.8976 c -0.2067,0 -0.3838,-0.1625 -0.3838,-0.3839 v 37.7953 c 0,-0.2067 0.1625,-0.3838 0.3838,-0.3838 h -18.8976 c -0.2068,0 -0.3839,0.1625 -0.3839,0.3838 v 37.7953 c 0,0.2067 0.1625,0.3838 0.3839,0.3838 h 18.8976 c -0.2067,0 -0.3838,-0.1625 -0.3838,-0.3838 v 37.7953 c 0,-0.2068 0.1625,-0.3839 0.3838,-0.3839 h -18.8976 c -0.2068,0 -0.3839,0.1625 -0.3839,0.3839 v 37.7952 c 0,0.2068 0.1625,0.3839 0.3839,0.3839 h 18.8976 c -0.2067,0 -0.3838,-0.1625 -0.3838,-0.3839 v 37.7953 c 0,-0.2067 0.1625,-0.3838 0.3838,-0.3838 h -18.8976 c -0.2068,0 -0.3839,0.1625 -0.3839,0.3838 v 37.7953 c 0,0.2067 0.1625,0.3838 0.3839,0.3838 h 18.8976 c -0.2067,0 -0.3838,-0.1625 -0.3838,-0.3838 v 37.7953 c 0,-0.2068 0.1625,-0.3839 0.3838,-0.3839 h -18.8976 c -0.2068,0 -0.3839,0.1625 -0.3839,0.3839 v 37.7952 c 0,0.2068 0.1625,0.3839 0.3839,0.3839 h 18.8976 c -0.2067,0 -0.3838,-0.1625 -0.3838,-0.3839 v 37.7953 c 0,-0.2067 0.1625,-0.3838 0.3838,-0.3838 h -18.8976 c -0.2068,0 -0.3839,0.1625 -0.3839,0.3838 v 37.7953 c 0,0.2067 0.1625,0.3838 0.3839,0.3838 h 18.8976 c -0.2067,0 -0.3838,-0.1625 -0.3838,-0.3838 v 37.7952 c 0,-0.2067 0.1625,-0.3838 0.3838,-0.3838 h -18.8976 c -0.2068,0 -0.3839,0.1625 -0.3839,0.3838 v 37.7953 c 0,0.2068 0.1625,0.3839 0.3839,0.3839 h 18.8976 c -0.2067,0 -0.3838,-0.1626 -0.3838,-0.3839 v 37.7953 c 0,-0.2068 0.1625,-0.3839 0.3838,-0.3839 h -18.8976 c -0.2068,0 -0.3839,0.1626 -0.3839,0.3839 v 37.7953 c 0,0.2067 0.1625,0.3838 0.3839,0.3838 h 18.8976 c -0.2067,0 -0.3838,-0.1625 -0.3838,-0.3838 v 37.7952 c 0,-0.2067 0.1625,-0.3838 0.3838,-0.3838 h -18.8976 c -0.2068,0 -0.3839,0.1625 -0.3839,0.3838 v 37.7953 c 0,0.2068 0.1625,0.3839 0.3839,0.3839 h 18.8976 c -0.2067,0 -0.3838,-0.1626 -0.3838,-0.3839 v 37.7953 c 0,-0.2068 0.1625,-0.3839 0.3838,-0.3839 h -18.8976 c -0.2068,0 -0.3839,0.1626 -0.3839,0.3839 v 37.7953 c 0,0.2067 0.1625,0.3838 0.3839,0.3838 h 18.8976 c -0.2067,0 -0.3838,-0.1625 -0.3838,-0.3838 v 37.7952 c 0,-0.2067 0.1625,-0.3838 0.3838,-0.3838 h -18.8976 c -0.2068,0 -0.3839,0.1625 -0.3839,0.3838 v 37.7953 c 0,0.2068 0.1625,0.3839 0.3839,0.3839 h 18.8976 c -0.2067,0 -0.3838,-0.1626 -0.3838,-0.3839 v 37.7953 c 0,-0.2068 0.1625,-0.3839 0.3838,-0.3839 h -18.8976 c -0.2068,0 -0.3839,0.1626 -0.3839,0.3839 v 37.7953 c 0,0.2067 0.1625,0.3838 0.3839,0.3838 h 18.8976 c -0.2067,0 -0.3838,-0.1625 -0.3838,-0.3838 v 37.7952 c 0,-0.2067 0.1625,-0.3838 0.3838,-0.3838 h -18.8976 c -0.2068,0 -0.3839,0.1625 -0.3839,0.3838 v 37.7953 c 0,0.2068 0.1625,0.3839 0.3839,0.3839 h 18.8976 c -0.2067,0 -0.3838,-0.1626 -0.3838,-0.3839 v 37.7953 c 0,-0.2068 0.1625,-0.3839 0.3838,-0.3839 h -18.8976 c -0.2068,0 -0.3839,0.1626 -0.3839,0.3839 v 37.7953 c 0,0.2067 0.1625,0.3838 0.3839,0.3838 h 18.8976 c -0.2067,0 -0.3838,-0.1625 -0.3838,-0.3838 v 37.7952 c 0,-0.2067 0.1625,-0.3838 0.3838,-0.3838 h -18.8976 c -0.2068,0 -0.3839,0.1625 -0.3839,0.3838 v 37.7953 c 0,0.2068 0.1625,0.3839 0.3839,0.3839 h 18.8976 c -0.2067,0 -0.3838,-0.1626 -0.3838,-0.3839 v 37.7953 c 0,-0.2068 0.1625,-0.3839 0.3838,-0.3839 h -18.8976 c -0.2068,0 -0.3839,0.1626 -0.3839,0.3839 v 37.7953 c 0,0.2067 0.1625,0.3838 0.3839,0.3838 h 18.8976 c -0.2067,0 -0.3838,-0.1625 -0.3838,-0.3838 v 37.7952 c 0,-0.2067 0.1625,-0.3838 0.3838,-0.3838 h -18.8976 c -0.2068,0 -0.3839,0.1625 -0.3839,0.3838 v 37.7953 c 0,0.2068 0.1625,0.3839 0.3839,0.3839 h 18.8976 c -0.2067,0 -0.3838,-0.1626 -0.3838,-0.3839 v 37.7953 c 0,-0.2068 0.1625,-0.3839 0.3838,-0.3839 h -18.8976 c -0.2068,0 -0.3839,0.1626 -0.3839,0.3839 v 37.7953 c 0,0.2067 0.1625,0.3838 0.3839,0.3838 h 18.8976 c -0.2067,0 -0.3838,-0.1625 -0.3838,-0.3838 v 37.7952 c 0,-0.2067 0.1625,-0.3838 0.3838,-0.3838 h -18.8976 c -0.2068,0 -0.3839,0.1625 -0.3839,0.3838 v 37.7953 c 0,0.2068 0.1625,0.3839 0.3839,0.3839 h 18.8976 c -0.2067,0 -0.3838,-0.1626 -0.3838,-0.3839 v 37.7953 c 0,-0.2068 0.1625,-0.3839 0.3838,-0.3839 h -18.8976 c -0.2068,0 -0.3839,0.1626 -0.3839,0.3839 v 56.6929 18.8976 c 0,0.2068 0.1625,0.3839 0.3839,0.3839 h 18.8976 47.2441 c 0.2067,0 0.3838,-0.1625 0.3838,-0.3839 v -18.8976 c 0,0.2067 -0.1625,0.3838 -0.3838,0.3838 h 37.7953 c -0.2068,0 -0.3839,-0.1625 -0.3839,-0.3838 v 18.8976 c 0,0.2068 0.1625,0.3839 0.3839,0.3839 h 37.7952 c 0.2068,0 0.3839,-0.1625 0.3839,-0.3839 v -18.8976 c 0,0.2067 -0.1625,0.3838 -0.3839,0.3838 h 37.7952 c -0.2067,0 -0.3838,-0.1625 -0.3838,-0.3838 v 18.8976 c 0,0.2068 0.1625,0.3839 0.3838,0.3839 h 37.7953 c 0.2067,0 0.3838,-0.1625 0.3838,-0.3839 v -18.8976 c 0,0.2067 -0.1625,0.3838 -0.3838,0.3838 h 37.7953 c -0.2068,0 -0.3839,-0.1625 -0.3839,-0.3838 v 18.8976 c 0,0.2068 0.1625,0.3839 0.3839,0.3839 h 47.2441 18.8976 c 0.2067,0 0.3838,-0.1625 0.3838,-0.3839 v -18.8976 -56.6929 c 0,-0.2068 -0.1625,-0.3839 -0.3838,-0.3839 h -18.8976 c 0.2067,0 0.3838,0.1626 0.3838,0.3839 v -37.7953 c 0,0.2068 -0.1625,0.3839 -0.3838,0.3839 h 18.8976 c 0.2067,0 0.3838,-0.1626 0.3838,-0.3839 v -37.7953 c 0,-0.2067 -0.1625,-0.3838 -0.3838,-0.3838 h -18.8976 c 0.2067,0 0.3838,0.1625 0.3838,0.3838 v -37.7952 c 0,0.2067 -0.1625,0.3838 -0.3838,0.3838 h 18.8976 c 0.2067,0 0.3838,-0.1625 0.3838,-0.3838 v -37.7953 c 0,-0.2068 -0.1625,-0.3839 -0.3838,-0.3839 h -18.8976 c 0.2067,0 0.3838,0.1626 0.3838,0.3839 v -37.7953 c 0,0.2068 -0.1625,0.3839 -0.3838,0.3839 h 18.8976 c 0.2067,0 0.3838,-0.1626 0.3838,-0.3839 v -37.7953 c 0,-0.2067 -0.1625,-0.3838 -0.3838,-0.3838 h -18.8976 c 0.2067,0 0.3838,0.1625 0.3838,0.3838 v -37.7952 c 0,0.2067 -0.1625,0.3838 -0.3838,0.3838 h 18.8976 c 0.2067,0 0.3838,-0.1625 0.3838,-0.3838 v -37.7953 c 0,-0.2068 -0.1625,-0.3839 -0.3838,-0.3839 h -18.8976 c 0.2067,0 0.3838,0.1626 0.3838,0.3839 v -37.7953 c 0,0.2068 -0.1625,0.3839 -0.3838,0.3839 h 18.8976 c 0.2067,0 0.3838,-0.1626 0.3838,-0.3839 v -37.7953 c 0,-0.2067 -0.1625,-0.3838 -0.3838,-0.3838 h -18.8976 c 0.2067,0 0.3838,0.1625 0.3838,0.3838 v -37.7952 c 0,0.2067 -0.1625,0.3838 -0.3838,0.3838 h 18.8976 c 0.2067,0 0.3838,-0.1625 0.3838,-0.3838 v -37.7953 c 0,-0.2068 -0.1625,-0.3839 -0.3838,-0.3839 h -18.8976 c 0.2067,0 0.3838,0.1626 0.3838,0.3839 v -37.7953 c 0,0.2068 -0.1625,0.3839 -0.3838,0.3839 h 18.8976 c 0.2067,0 0.3838,-0.1626 0.3838,-0.3839 v -37.7953 c 0,-0.2067 -0.1625,-0.3838 -0.3838,-0.3838 h -18.8976 c 0.2067,0 0.3838,0.1625 0.3838,0.3838 v -37.7952 c 0,0.2067 -0.1625,0.3838 -0.3838,0.3838 h 18.8976 c 0.2067,0 0.3838,-0.1625 0.3838,-0.3838 v -37.7953 c 0,-0.2068 -0.1625,-0.3839 -0.3838,-0.3839 h -18.8976 c 0.2067,0 0.3838,0.1626 0.3838,0.3839 v -37.7953 c 0,0.2068 -0.1625,0.3839 -0.3838,0.3839 h 18.8976 c 0.2067,0 0.3838,-0.1626 0.3838,-0.3839 v -37.7953 c 0,-0.2067 -0.1625,-0.3838 -0.3838,-0.3838 h -18.8976 c 0.2067,0 0.3838,0.1625 0.3838,0.3838 v -37.7952 c 0,0.2067 -0.1625,0.3838 -0.3838,0.3838 h 18.8976 c 0.2067,0 0.3838,-0.1625 0.3838,-0.3838 v -37.7953 c 0,-0.2068 -0.1625,-0.3839 -0.3838,-0.3839 h -18.8976 c 0.2067,0 0.3838,0.1626 0.3838,0.3839 v -37.7953 c 0,0.2068 -0.1625,0.3839 -0.3838,0.3839 h 18.8976 c 0.2067,0 0.3838,-0.1626 0.3838,-0.3839 v -37.7953 c 0,-0.2067 -0.1625,-0.3838 -0.3838,-0.3838 h -18.8976 c 0.2067,0 0.3838,0.1625 0.3838,0.3838 v -37.7952 c 0,0.2067 -0.1625,0.3838 -0.3838,0.3838 h 18.8976 c 0.2067,0 0.3838,-0.1625 0.3838,-0.3838 v -37.7953 c 0,-0.2068 -0.1625,-0.3839 -0.3838,-0.3839 h -18.8976 c 0.2067,0 0.3838,0.1626 0.3838,0.3839 v -37.7953 c 0,0.2068 -0.1625,0.3839 -0.3838,0.3839 h 18.8976 c 0.2067,0 0.3838,-0.1626 0.3838,-0.3839 v -37.7953 c 0,-0.2067 -0.1625,-0.3838 -0.3838,-0.3838 h -18.8976 c 0.2067,0 0.3838,0.1625 0.3838,0.3838 v -37.7952 c 0,0.2067 -0.1625,0.3838 -0.3838,0.3838 h 18.8976 c 0.2067,0 0.3838,-0.1625 0.3838,-0.3838 v -37.7953 c 0,-0.2067 -0.1625,-0.3838 -0.3838,-0.3838 h -18.8976 c 0.2067,0 0.3838,0.1625 0.3838,0.3838 v -37.7953 c 0,0.2068 -0.1625,0.3839 -0.3838,0.3839 h 18.8976 c 0.2067,0 0.3838,-0.1625 0.3838,-0.3839 v -37.7952 c 0,-0.2068 -0.1625,-0.3839 -0.3838,-0.3839 h -18.8976 c 0.2067,0 0.3838,0.1625 0.3838,0.3839 v -37.7953 c 0,0.2067 -0.1625,0.3838 -0.3838,0.3838 h 18.8976 c 0.2067,0 0.3838,-0.1625 0.3838,-0.3838 v -37.7953 c 0,-0.2067 -0.1625,-0.3838 -0.3838,-0.3838 h -18.8976 c 0.2067,0 0.3838,0.1625 0.3838,0.3838 v -37.7953 c 0,0.2068 -0.1625,0.3839 -0.3838,0.3839 h 18.8976 c 0.2067,0 0.3838,-0.1625 0.3838,-0.3839 v -37.7952 c 0,-0.2068 -0.1625,-0.3839 -0.3838,-0.3839 h -18.8976 c 0.2067,0 0.3838,0.1625 0.3838,0.3839 v -37.7953 c 0,0.2067 -0.1625,0.3838 -0.3838,0.3838 h 18.8976 c 0.2067,0 0.3838,-0.1625 0.3838,-0.3838 v -37.7953 c 0,-0.2067 -0.1625,-0.3838 -0.3838,-0.3838 h -18.8976 c 0.2067,0 0.3838,0.1625 0.3838,0.3838 v -37.7953 c 0,0.2068 -0.1625,0.3839 -0.3838,0.3839 h 18.8976 c 0.2067,0 0.3838,-0.1625 0.3838,-0.3839 v -37.79524 c 0,-0.2068 -0.1625,-0.3839 -0.3838,-0.3839 h -18.8976 c 0.2067,0 0.3838,0.1625 0.3838,0.3839 v -37.7953 c 0,0.2067 -0.1625,0.3838 -0.3838,0.3838 h 18.8976 c 0.2067,0 0.3838,-0.1625 0.3838,-0.3838 v -37.7953 c 0,-0.2067 -0.1625,-0.3838 -0.3838,-0.3838 h -18.8976 c 0.2067,0 0.3838,0.1625 0.3838,0.3838 v -37.7953 c 0,0.2068 -0.1625,0.3839 -0.3838,0.3839 h 18.8976 c 0.2067,0 0.3838,-0.1625 0.3838,-0.3839 v -37.7952 c 0,-0.2068 -0.1625,-0.3839 -0.3838,-0.3839 h -18.8976 c 0.2067,0 0.3838,0.1625 0.3838,0.3839 v -37.7953 c 0,0.2067 -0.1625,0.3838 -0.3838,0.3838 h 18.8976 c 0.2067,0 0.3838,-0.1625 0.3838,-0.3838 v -37.7953 c 0,-0.2067 -0.1625,-0.3838 -0.3838,-0.3838 h -18.8976 c 0.2067,0 0.3838,0.1625 0.3838,0.3838 v -37.7953 c 0,0.2067 -0.1625,0.3839 -0.3838,0.3839 h 18.8976 c 0.2067,0 0.3838,-0.1624 0.3838,-0.3839 v -37.7952 c 0,-0.2067 -0.1625,-0.3839 -0.3838,-0.3839 h -18.8976 c 0.2067,0 0.3838,0.1624 0.3838,0.3839 v -37.7953 c 0,0.2067 -0.1625,0.3838 -0.3838,0.3838 h 18.8976 c 0.2067,0 0.3838,-0.1624 0.3838,-0.3838 v -37.7953 c 0,-0.2067 -0.1625,-0.3838 -0.3838,-0.3838 h -18.8976 c 0.2067,0 0.3838,0.1624 0.3838,0.3838 v -37.7953 c 0,0.2067 -0.1625,0.3839 -0.3838,0.3839 h 18.8976 c 0.2067,0 0.3838,-0.1624 0.3838,-0.3839 v -37.7952 c 0,-0.2067 -0.1625,-0.3839 -0.3838,-0.3839 h -18.8976 c 0.2067,0 0.3838,0.1624 0.3838,0.3839 v -37.7953 c 0,0.2067 -0.1625,0.3838 -0.3838,0.3838 h 18.8976 c 0.2067,0 0.3838,-0.1624 0.3838,-0.3838 v -56.6929 -18.8977 c 0,-0.2067 -0.1625,-0.3838 -0.3838,-0.3838 h -18.8976 -47.2441 c -0.2068,0 -0.3839,0.1624 -0.3839,0.3838 v 18.8977 c 0,-0.2067 0.1625,-0.3839 0.3839,-0.3839 h -37.7953 c 0.2067,0 0.3838,0.1624 0.3838,0.3839 v -18.8977 c 0,-0.2067 -0.1625,-0.3838 -0.3838,-0.3838 h -37.7953 c -0.2067,0 -0.3838,0.1624 -0.3838,0.3838 v 18.8977 c 0,-0.2067 0.1625,-0.3839 0.3838,-0.3839 h -37.7952 c 0.2068,0 0.3839,0.1624 0.3839,0.3839 v -18.8977 c 0,-0.2067 -0.1625,-0.3838 -0.3839,-0.3838 h -37.7952 c -0.2068,0 -0.3839,0.1624 -0.3839,0.3838 v 18.8977 c 0,-0.2067 0.1625,-0.3839 0.3839,-0.3839 h -37.7953 c 0.2067,0 0.3838,0.1624 0.3838,0.3839 v -18.8977 c 0,-0.2067 -0.1625,-0.3838 -0.3838,-0.3838 h -47.2441 -18.8976 c -0.2068,0 -0.3839,0.1624 -0.3839,0.3838 v 18.8977"
         style="fill:none;stroke:#ff0000;stroke-width:0.75590551;stroke-linecap:butt;stroke-linejoin:miter;stroke-miterlimit:10;stroke-opacity:1"
         id="path40"
         inkscape:connector-curvature="0" />
      <rect
         transform="rotate(90)"
         y="-2837.5769"
         x="-539.2749"
         height="112.01974"
         width="17.667501"
         id="rect191-2-6"
         style="fill:none;stroke:#ff0000;stroke-width:1.36608136;stroke-miterlimit:4;stroke-dasharray:none;stroke-dashoffset:0;stroke-opacity:1" />
    </g>
    <g
       id="g1073"
       transform="translate(0,37.795285)"
       style="stroke:#ff0000">
      <g
         style="stroke:#ff0000"
         transform="matrix(0,3.7795275,-3.7795275,0,1299.1535,-1646.2993)"
         id="g1473">
        <path
           inkscape:connector-curvature="0"
           id="path42"
           style="fill:none;stroke:#ff0000;stroke-width:0.2;stroke-linecap:butt;stroke-linejoin:miter;stroke-miterlimit:10;stroke-opacity:1"
           d="m 15.1016,325.2031 h 15 c -0.05469,0 -0.101562,-0.043 -0.101562,-0.10156 v 5 c 0,0.0547 0.04297,0.10156 0.101562,0.10156 h 10 c 0.05469,0 0.101562,-0.043 0.101562,-0.10156 v -5 c 0,0.0547 -0.04297,0.10156 -0.101562,0.10156 h 10 c -0.05469,0 -0.101562,-0.043 -0.101562,-0.10156 v 5 c 0,0.0547 0.04297,0.10156 0.101562,0.10156 h 10 c 0.05469,0 0.101562,-0.043 0.101562,-0.10156 v -5 c 0,0.0547 -0.04297,0.10156 -0.101562,0.10156 h 10 c -0.05469,0 -0.101562,-0.043 -0.101562,-0.10156 v 5 c 0,0.0547 0.04297,0.10156 0.101562,0.10156 h 10 c 0.05469,0 0.101562,-0.043 0.101562,-0.10156 v -5 c 0,0.0547 -0.04297,0.10156 -0.101562,0.10156 h 10 c -0.05469,0 -0.101562,-0.043 -0.101562,-0.10156 v 5 c 0,0.0547 0.04297,0.10156 0.101562,0.10156 h 10 c 0.0547,0 0.10156,-0.043 0.10156,-0.10156 v -5 c 0,0.0547 -0.043,0.10156 -0.10156,0.10156 h 10 c -0.0547,0 -0.10156,-0.043 -0.10156,-0.10156 v 5 c 0,0.0547 0.043,0.10156 0.10156,0.10156 h 10 c 0.0547,0 0.10156,-0.043 0.10156,-0.10156 v -5 c 0,0.0547 -0.043,0.10156 -0.10156,0.10156 h 10 c -0.0547,0 -0.10156,-0.043 -0.10156,-0.10156 v 5 c 0,0.0547 0.043,0.10156 0.10156,0.10156 h 10 c 0.0547,0 0.10156,-0.043 0.10156,-0.10156 v -5 c 0,0.0547 -0.043,0.10156 -0.10156,0.10156 h 10 c -0.0547,0 -0.10156,-0.043 -0.10156,-0.10156 v 5 c 0,0.0547 0.043,0.10156 0.10156,0.10156 h 10 c 0.0547,0 0.10156,-0.043 0.10156,-0.10156 v -5 c 0,0.0547 -0.043,0.10156 -0.10156,0.10156 h 10 c -0.0547,0 -0.10156,-0.043 -0.10156,-0.10156 v 5 c 0,0.0547 0.043,0.10156 0.10156,0.10156 h 10 c 0.0547,0 0.10156,-0.043 0.10156,-0.10156 v -5 c 0,0.0547 -0.043,0.10156 -0.10156,0.10156 h 10 c -0.0547,0 -0.10156,-0.043 -0.10156,-0.10156 v 5 c 0,0.0547 0.043,0.10156 0.10156,0.10156 h 10 c 0.0547,0 0.10156,-0.043 0.10156,-0.10156 v -5 c 0,0.0547 -0.043,0.10156 -0.10156,0.10156 h 10 c -0.0547,0 -0.10156,-0.043 -0.10156,-0.10156 v 5 c 0,0.0547 0.043,0.10156 0.10156,0.10156 h 10 c 0.0547,0 0.10156,-0.043 0.10156,-0.10156 v -5 c 0,0.0547 -0.043,0.10156 -0.10156,0.10156 h 10 c -0.0547,0 -0.10156,-0.043 -0.10156,-0.10156 v 5 c 0,0.0547 0.043,0.10156 0.10156,0.10156 h 10 c 0.0547,0 0.10156,-0.043 0.10156,-0.10156 v -5 c 0,0.0547 -0.043,0.10156 -0.10156,0.10156 h 10 c -0.0547,0 -0.10156,-0.043 -0.10156,-0.10156 v 5 c 0,0.0547 0.043,0.10156 0.10156,0.10156 h 10 c 0.0547,0 0.10156,-0.043 0.10156,-0.10156 v -5 c 0,0.0547 -0.043,0.10156 -0.10156,0.10156 h 10 c -0.0547,0 -0.10156,-0.043 -0.10156,-0.10156 v 5 c 0,0.0547 0.043,0.10156 0.10156,0.10156 h 10 c 0.0547,0 0.10156,-0.043 0.10156,-0.10156 v -5 c 0,0.0547 -0.043,0.10156 -0.10156,0.10156 h 10 c -0.0547,0 -0.10156,-0.043 -0.10156,-0.10156 v 5 c 0,0.0547 0.043,0.10156 0.10156,0.10156 h 10 c 0.0547,0 0.10156,-0.043 0.10156,-0.10156 v -5 c 0,0.0547 -0.043,0.10156 -0.10156,0.10156 h 10 c -0.0547,0 -0.10156,-0.043 -0.10156,-0.10156 v 5 c 0,0.0547 0.043,0.10156 0.10156,0.10156 h 10 c 0.0547,0 0.10156,-0.043 0.10156,-0.10156 v -5 c 0,0.0547 -0.043,0.10156 -0.10156,0.10156 h 10 c -0.0547,0 -0.10156,-0.043 -0.10156,-0.10156 v 5 c 0,0.0547 0.043,0.10156 0.10156,0.10156 h 10 c 0.0547,0 0.10156,-0.043 0.10156,-0.10156 v -5 c 0,0.0547 -0.043,0.10156 -0.10156,0.10156 h 10 c -0.0547,0 -0.10156,-0.043 -0.10156,-0.10156 v 5 c 0,0.0547 0.043,0.10156 0.10156,0.10156 h 10 c 0.0547,0 0.10156,-0.043 0.10156,-0.10156 v -5 c 0,0.0547 -0.043,0.10156 -0.10156,0.10156 h 10 c -0.0547,0 -0.10156,-0.043 -0.10156,-0.10156 v 5 c 0,0.0547 0.043,0.10156 0.10156,0.10156 h 10 c 0.0547,0 0.10156,-0.043 0.10156,-0.10156 v -5 c 0,0.0547 -0.043,0.10156 -0.10156,0.10156 h 10 c -0.0547,0 -0.10156,-0.043 -0.10156,-0.10156 v 5 c 0,0.0547 0.043,0.10156 0.10156,0.10156 h 10 c 0.0547,0 0.10156,-0.043 0.10156,-0.10156 v -5 c 0,0.0547 -0.043,0.10156 -0.10156,0.10156 h 10 c -0.0547,0 -0.10156,-0.043 -0.10156,-0.10156 v 5 c 0,0.0547 0.043,0.10156 0.10156,0.10156 h 10 c 0.0547,0 0.10156,-0.043 0.10156,-0.10156 v -5 c 0,0.0547 -0.043,0.10156 -0.10156,0.10156 h 10 c -0.0547,0 -0.10156,-0.043 -0.10156,-0.10156 v 5 c 0,0.0547 0.043,0.10156 0.10156,0.10156 h 10 c 0.0547,0 0.10156,-0.043 0.10156,-0.10156 v -5 c 0,0.0547 -0.043,0.10156 -0.10156,0.10156 h 10 c -0.0547,0 -0.10156,-0.043 -0.10156,-0.10156 v 5 c 0,0.0547 0.043,0.10156 0.10156,0.10156 h 10 c 0.0547,0 0.10156,-0.043 0.10156,-0.10156 v -5 c 0,0.0547 -0.043,0.10156 -0.10156,0.10156 h 10 c -0.0547,0 -0.10156,-0.043 -0.10156,-0.10156 v 5 c 0,0.0547 0.043,0.10156 0.10156,0.10156 h 10 c 0.0547,0 0.10156,-0.043 0.10156,-0.10156 v -5 c 0,0.0547 -0.043,0.10156 -0.10156,0.10156 h 10 c -0.0547,0 -0.10156,-0.043 -0.10156,-0.10156 v 5 c 0,0.0547 0.043,0.10156 0.10156,0.10156 h 10 c 0.0547,0 0.10156,-0.043 0.10156,-0.10156 v -5 c 0,0.0547 -0.043,0.10156 -0.10156,0.10156 h 10 c -0.0547,0 -0.10156,-0.043 -0.10156,-0.10156 v 5 c 0,0.0547 0.043,0.10156 0.10156,0.10156 h 10 c 0.0547,0 0.10156,-0.043 0.10156,-0.10156 v -5 c 0,0.0547 -0.043,0.10156 -0.10156,0.10156 h 10 c -0.0547,0 -0.10156,-0.043 -0.10156,-0.10156 v 5 c 0,0.0547 0.043,0.10156 0.10156,0.10156 h 10 c 0.0547,0 0.10156,-0.043 0.10156,-0.10156 v -5 c 0,0.0547 -0.043,0.10156 -0.10156,0.10156 h 15 c 0.0547,0 0.10156,-0.043 0.10156,-0.10156 v 0 -10 c 0,0.0547 -0.043,0.10156 -0.10156,0.10156 h 5 c 0.0547,0 0.10156,-0.043 0.10156,-0.10156 v -10 c 0,-0.0547 -0.043,-0.10157 -0.10156,-0.10157 h -5 c 0.0547,0 0.10156,0.043 0.10156,0.10157 v -10 c 0,0.0547 -0.043,0.10156 -0.10156,0.10156 h 5 c 0.0547,0 0.10156,-0.043 0.10156,-0.10156 v -10 c 0,-0.0547 -0.043,-0.10157 -0.10156,-0.10157 h -5 c 0.0547,0 0.10156,0.043 0.10156,0.10157 v -10 c 0,0.0547 -0.043,0.10156 -0.10156,0.10156 h 5 c 0.0547,0 0.10156,-0.043 0.10156,-0.10156 v -10 c 0,-0.0547 -0.043,-0.10157 -0.10156,-0.10157 h -5 c 0.0547,0 0.10156,0.043 0.10156,0.10157 v -10 c 0,0.0547 -0.043,0.10156 -0.10156,0.10156 h 5 c 0.0547,0 0.10156,-0.043 0.10156,-0.10156 v -10 c 0,-0.0547 -0.043,-0.10157 -0.10156,-0.10157 h -5 c 0.0547,0 0.10156,0.043 0.10156,0.10157 v -10 c 0,0.0547 -0.043,0.10156 -0.10156,0.10156 h 5 c 0.0547,0 0.10156,-0.043 0.10156,-0.10156 v -10 c 0,-0.0547 -0.043,-0.10157 -0.10156,-0.10157 h -5 c 0.0547,0 0.10156,0.043 0.10156,0.10157 v -10 c 0,0.0547 -0.043,0.10156 -0.10156,0.10156 h 5 c 0.0547,0 0.10156,-0.043 0.10156,-0.10156 v -10 c 0,-0.0547 -0.043,-0.10157 -0.10156,-0.10157 h -5 c 0.0547,0 0.10156,0.043 0.10156,0.10157 v -10 c 0,0.0547 -0.043,0.10156 -0.10156,0.10156 h 5 c 0.0547,0 0.10156,-0.043 0.10156,-0.10156 v -10 c 0,-0.0547 -0.043,-0.10156 -0.10156,-0.10156 h -5 c 0.0547,0 0.10156,0.043 0.10156,0.10156 v -10 c 0,0.0547 -0.043,0.10156 -0.10156,0.10156 h 5 c 0.0547,0 0.10156,-0.043 0.10156,-0.10156 v -10 c 0,-0.0547 -0.043,-0.10156 -0.10156,-0.10156 h -5 c 0.0547,0 0.10156,0.043 0.10156,0.10156 v -10 c 0,0.0547 -0.043,0.10156 -0.10156,0.10156 h 5 c 0.0547,0 0.10156,-0.043 0.10156,-0.10156 v -10 c 0,-0.0547 -0.043,-0.10156 -0.10156,-0.10156 h -5 c 0.0547,0 0.10156,0.043 0.10156,0.10156 v -10 c 0,0.0547 -0.043,0.10156 -0.10156,0.10156 h 5 c 0.0547,0 0.10156,-0.043 0.10156,-0.10156 v -10 c 0,-0.0547 -0.043,-0.10156 -0.10156,-0.10156 h -5 c 0.0547,0 0.10156,0.043 0.10156,0.10156 v -10 c 0,0.0547 -0.043,0.10156 -0.10156,0.10156 h 5 c 0.0547,0 0.10156,-0.043 0.10156,-0.10156 v -10 c 0,-0.0547 -0.043,-0.10156 -0.10156,-0.10156 h -5 c 0.0547,0 0.10156,0.043 0.10156,0.10156 v -10 c 0,0.05469 -0.043,0.10156 -0.10156,0.10156 h 5 c 0.0547,0 0.10156,-0.043 0.10156,-0.10156 v -10 c 0,-0.0547 -0.043,-0.10156 -0.10156,-0.10156 h -5 c 0.0547,0 0.10156,0.043 0.10156,0.10156 v -10 c 0,0.05469 -0.043,0.10156 -0.10156,0.10156 h 5 c 0.0547,0 0.10156,-0.043 0.10156,-0.10156 v -10 c 0,-0.0547 -0.043,-0.10156 -0.10156,-0.10156 h -5 c 0.0547,0 0.10156,0.043 0.10156,0.10156 v -10 c 0,0.05469 -0.043,0.10156 -0.10156,0.10156 h 5 c 0.0547,0 0.10156,-0.043 0.10156,-0.10156 v -10 c 0,-0.0547 -0.043,-0.10156 -0.10156,-0.10156 h -5 c 0.0547,0 0.10156,0.043 0.10156,0.10156 v -10 c 0,0.05469 -0.043,0.10156 -0.10156,0.10156 h 5 c 0.0547,0 0.10156,-0.043 0.10156,-0.10156 v -10 c 0,-0.0547 -0.043,-0.10156 -0.10156,-0.10156 h -5 c 0.0547,0 0.10156,0.043 0.10156,0.10156 v -10 c 0,-0.0547 -0.043,-0.10156 -0.10156,-0.10156 v 0 h -15 c 0.0547,0 0.10156,0.043 0.10156,0.10156 v -5 c 0,-0.0547 -0.043,-0.10156 -0.10156,-0.10156 h -10 c -0.0547,0 -0.10156,0.043 -0.10156,0.10156 v 5 c 0,-0.0547 0.043,-0.10156 0.10156,-0.10156 h -10 c 0.0547,0 0.10156,0.043 0.10156,0.10156 v -5 c 0,-0.0547 -0.043,-0.10156 -0.10156,-0.10156 h -10 c -0.0547,0 -0.10156,0.043 -0.10156,0.10156 v 5 c 0,-0.0547 0.043,-0.10156 0.10156,-0.10156 h -10 c 0.0547,0 0.10156,0.043 0.10156,0.10156 v -5 c 0,-0.0547 -0.043,-0.10156 -0.10156,-0.10156 h -10 c -0.0547,0 -0.10156,0.043 -0.10156,0.10156 v 5 c 0,-0.0547 0.043,-0.10156 0.10156,-0.10156 h -10 c 0.0547,0 0.10156,0.043 0.10156,0.10156 v -5 c 0,-0.0547 -0.043,-0.10156 -0.10156,-0.10156 h -10 c -0.0547,0 -0.10156,0.043 -0.10156,0.10156 v 5 c 0,-0.0547 0.043,-0.10156 0.10156,-0.10156 h -10 c 0.0547,0 0.10156,0.043 0.10156,0.10156 v -5 c 0,-0.0547 -0.043,-0.10156 -0.10156,-0.10156 h -10 c -0.0547,0 -0.10156,0.043 -0.10156,0.10156 v 5 c 0,-0.0547 0.043,-0.10156 0.10156,-0.10156 h -10 c 0.0547,0 0.10156,0.043 0.10156,0.10156 v -5 c 0,-0.0547 -0.043,-0.10156 -0.10156,-0.10156 h -10 c -0.0547,0 -0.10156,0.043 -0.10156,0.10156 v 5 c 0,-0.0547 0.043,-0.10156 0.10156,-0.10156 h -10 c 0.0547,0 0.10156,0.043 0.10156,0.10156 v -5 c 0,-0.0547 -0.043,-0.10156 -0.10156,-0.10156 h -10 c -0.0547,0 -0.10156,0.043 -0.10156,0.10156 v 5 c 0,-0.0547 0.043,-0.10156 0.10156,-0.10156 h -10 c 0.0547,0 0.10156,0.043 0.10156,0.10156 v -5 c 0,-0.0547 -0.043,-0.10156 -0.10156,-0.10156 h -10 c -0.0547,0 -0.10156,0.043 -0.10156,0.10156 v 5 c 0,-0.0547 0.043,-0.10156 0.10156,-0.10156 h -10 c 0.0547,0 0.10156,0.043 0.10156,0.10156 v -5 c 0,-0.0547 -0.043,-0.10156 -0.10156,-0.10156 h -10 c -0.0547,0 -0.10156,0.043 -0.10156,0.10156 v 5 c 0,-0.0547 0.043,-0.10156 0.10156,-0.10156 h -10 c 0.0547,0 0.10156,0.043 0.10156,0.10156 v -5 c 0,-0.0547 -0.043,-0.10156 -0.10156,-0.10156 h -10 c -0.0547,0 -0.10156,0.043 -0.10156,0.10156 v 5 c 0,-0.0547 0.043,-0.10156 0.10156,-0.10156 h -10 c 0.0547,0 0.10156,0.043 0.10156,0.10156 v -5 c 0,-0.0547 -0.043,-0.10156 -0.10156,-0.10156 h -10 c -0.0547,0 -0.10156,0.043 -0.10156,0.10156 v 5 c 0,-0.0547 0.043,-0.10156 0.10156,-0.10156 h -10 c 0.0547,0 0.10156,0.043 0.10156,0.10156 v -5 c 0,-0.0547 -0.043,-0.10156 -0.10156,-0.10156 h -10 c -0.0547,0 -0.10156,0.043 -0.10156,0.10156 v 5 c 0,-0.0547 0.043,-0.10156 0.10156,-0.10156 h -10 c 0.0547,0 0.10156,0.043 0.10156,0.10156 v -5 c 0,-0.0547 -0.043,-0.10156 -0.10156,-0.10156 h -10 c -0.0547,0 -0.10156,0.043 -0.10156,0.10156 v 5 c 0,-0.0547 0.043,-0.10156 0.10156,-0.10156 h -10 c 0.0547,0 0.10156,0.043 0.10156,0.10156 v -5 c 0,-0.0547 -0.043,-0.10156 -0.10156,-0.10156 h -10 c -0.0547,0 -0.10156,0.043 -0.10156,0.10156 v 5 c 0,-0.0547 0.043,-0.10156 0.10156,-0.10156 h -10 c 0.0547,0 0.10156,0.043 0.10156,0.10156 v -5 c 0,-0.0547 -0.043,-0.10156 -0.10156,-0.10156 h -10 c -0.0547,0 -0.10156,0.043 -0.10156,0.10156 v 5 c 0,-0.0547 0.043,-0.10156 0.10156,-0.10156 h -10 c 0.0547,0 0.10156,0.043 0.10156,0.10156 v -5 c 0,-0.0547 -0.043,-0.10156 -0.10156,-0.10156 h -10 c -0.0547,0 -0.10156,0.043 -0.10156,0.10156 v 5 c 0,-0.0547 0.043,-0.10156 0.10156,-0.10156 h -10 c 0.0547,0 0.10156,0.043 0.10156,0.10156 v -5 c 0,-0.0547 -0.043,-0.10156 -0.10156,-0.10156 h -10 c -0.0547,0 -0.10156,0.043 -0.10156,0.10156 v 5 c 0,-0.0547 0.043,-0.10156 0.10156,-0.10156 h -10 c 0.0547,0 0.10156,0.043 0.10156,0.10156 v -5 c 0,-0.0547 -0.043,-0.10156 -0.10156,-0.10156 h -10 c -0.0547,0 -0.10156,0.043 -0.10156,0.10156 v 5 c 0,-0.0547 0.043,-0.10156 0.10156,-0.10156 h -10 c 0.0547,0 0.10156,0.043 0.10156,0.10156 v -5 c 0,-0.0547 -0.043,-0.10156 -0.10156,-0.10156 h -10 c -0.0547,0 -0.10156,0.043 -0.10156,0.10156 v 5 c 0,-0.0547 0.043,-0.10156 0.10156,-0.10156 h -10 c 0.0547,0 0.10156,0.043 0.10156,0.10156 v -5 c 0,-0.0547 -0.043,-0.10156 -0.10156,-0.10156 h -10 c -0.0547,0 -0.10156,0.043 -0.10156,0.10156 v 5 c 0,-0.0547 0.043,-0.10156 0.10156,-0.10156 h -10 c 0.0547,0 0.10156,0.043 0.10156,0.10156 v -5 c 0,-0.0547 -0.043,-0.10156 -0.10156,-0.10156 h -10 c -0.0547,0 -0.10156,0.043 -0.10156,0.10156 v 5 c 0,-0.0547 0.043,-0.10156 0.10156,-0.10156 h -10 c 0.0547,0 0.10156,0.043 0.10156,0.10156 v -5 c 0,-0.0547 -0.043,-0.10156 -0.10156,-0.10156 h -10 c -0.0547,0 -0.10156,0.043 -0.10156,0.10156 v 5 c 0,-0.0547 0.043,-0.10156 0.10156,-0.10156 h -10 c 0.0547,0 0.10156,0.043 0.10156,0.10156 v -5 c 0,-0.0547 -0.043,-0.10156 -0.10156,-0.10156 h -10 c -0.05469,0 -0.101563,0.043 -0.101563,0.10156 v 5 c 0,-0.0547 0.04297,-0.10156 0.101563,-0.10156 h -10 c 0.05469,0 0.101562,0.043 0.101562,0.10156 v -5 c 0,-0.0547 -0.04297,-0.10156 -0.101562,-0.10156 h -10 c -0.05469,0 -0.101563,0.043 -0.101563,0.10156 v 5 c 0,-0.0547 0.04297,-0.10156 0.101563,-0.10156 h -10 c 0.05469,0 0.101562,0.043 0.101562,0.10156 v -5 c 0,-0.0547 -0.04297,-0.10156 -0.101562,-0.10156 h -10 c -0.05469,0 -0.101563,0.043 -0.101563,0.10156 v 5 c 0,-0.0547 0.04297,-0.10156 0.101563,-0.10156 h -10 c 0.05469,0 0.101562,0.043 0.101562,0.10156 v -5 c 0,-0.0547 -0.04297,-0.10156 -0.101562,-0.10156 h -10 c -0.05469,0 -0.101563,0.043 -0.101563,0.10156 v 5 c 0,-0.0547 0.04297,-0.10156 0.101563,-0.10156 h -15 c -0.05469,0 -0.101563,0.043 -0.101563,0.10156 v 0 10 c 0,-0.0547 0.04297,-0.10156 0.101563,-0.10156 h -5 c -0.05469,0 -0.101563,0.043 -0.101563,0.10156 v 10 c 0,0.05469 0.04297,0.10156 0.101563,0.10156 h 5 c -0.05469,0 -0.101563,-0.043 -0.101563,-0.10156 v 10 c 0,-0.0547 0.04297,-0.10156 0.101563,-0.10156 h -5 c -0.05469,0 -0.101563,0.043 -0.101563,0.10156 v 10 c 0,0.05469 0.04297,0.10156 0.101563,0.10156 h 5 c -0.05469,0 -0.101563,-0.043 -0.101563,-0.10156 v 10 c 0,-0.0547 0.04297,-0.10156 0.101563,-0.10156 h -5 c -0.05469,0 -0.101563,0.043 -0.101563,0.10156 v 10 c 0,0.05469 0.04297,0.10156 0.101563,0.10156 h 5 c -0.05469,0 -0.101563,-0.043 -0.101563,-0.10156 v 10 c 0,-0.0547 0.04297,-0.10156 0.101563,-0.10156 h -5 c -0.05469,0 -0.101563,0.043 -0.101563,0.10156 v 10 c 0,0.05469 0.04297,0.10156 0.101563,0.10156 h 5 c -0.05469,0 -0.101563,-0.043 -0.101563,-0.10156 v 10 c 0,-0.0547 0.04297,-0.10156 0.101563,-0.10156 h -5 c -0.05469,0 -0.101563,0.043 -0.101563,0.10156 v 10 c 0,0.0547 0.04297,0.10156 0.101563,0.10156 h 5 c -0.05469,0 -0.101563,-0.043 -0.101563,-0.10156 v 10 c 0,-0.0547 0.04297,-0.10156 0.101563,-0.10156 h -5 c -0.05469,0 -0.101563,0.043 -0.101563,0.10156 v 10 c 0,0.0547 0.04297,0.10156 0.101563,0.10156 h 5 c -0.05469,0 -0.101563,-0.043 -0.101563,-0.10156 v 10 c 0,-0.0547 0.04297,-0.10156 0.101563,-0.10156 h -5 c -0.05469,0 -0.101563,0.043 -0.101563,0.10156 v 10 c 0,0.0547 0.04297,0.10156 0.101563,0.10156 h 5 c -0.05469,0 -0.101563,-0.043 -0.101563,-0.10156 v 10 c 0,-0.0547 0.04297,-0.10156 0.101563,-0.10156 h -5 c -0.05469,0 -0.101563,0.043 -0.101563,0.10156 v 10 c 0,0.0547 0.04297,0.10156 0.101563,0.10156 h 5 c -0.05469,0 -0.101563,-0.043 -0.101563,-0.10156 v 10 c 0,-0.0547 0.04297,-0.10156 0.101563,-0.10156 h -5 c -0.05469,0 -0.101563,0.043 -0.101563,0.10156 v 10 c 0,0.0547 0.04297,0.10156 0.101563,0.10156 h 5 c -0.05469,0 -0.101563,-0.043 -0.101563,-0.10156 v 10 c 0,-0.0547 0.04297,-0.10157 0.101563,-0.10157 h -5 c -0.05469,0 -0.101563,0.043 -0.101563,0.10157 v 10 c 0,0.0547 0.04297,0.10156 0.101563,0.10156 h 5 c -0.05469,0 -0.101563,-0.043 -0.101563,-0.10156 v 10 c 0,-0.0547 0.04297,-0.10157 0.101563,-0.10157 h -5 c -0.05469,0 -0.101563,0.043 -0.101563,0.10157 v 10 c 0,0.0547 0.04297,0.10156 0.101563,0.10156 h 5 c -0.05469,0 -0.101563,-0.043 -0.101563,-0.10156 v 10 c 0,-0.0547 0.04297,-0.10157 0.101563,-0.10157 h -5 c -0.05469,0 -0.101563,0.043 -0.101563,0.10157 v 10 c 0,0.0547 0.04297,0.10156 0.101563,0.10156 h 5 c -0.05469,0 -0.101563,-0.043 -0.101563,-0.10156 v 10 c 0,-0.0547 0.04297,-0.10157 0.101563,-0.10157 h -5 c -0.05469,0 -0.101563,0.043 -0.101563,0.10157 v 10 c 0,0.0547 0.04297,0.10156 0.101563,0.10156 h 5 c -0.05469,0 -0.101563,-0.043 -0.101563,-0.10156 v 10 c 0,-0.0547 0.04297,-0.10157 0.101563,-0.10157 h -5 c -0.05469,0 -0.101563,0.043 -0.101563,0.10157 v 10 c 0,0.0547 0.04297,0.10156 0.101563,0.10156 h 5 c -0.05469,0 -0.101563,-0.043 -0.101563,-0.10156 v 10 c 0,-0.0547 0.04297,-0.10157 0.101563,-0.10157 h -5 c -0.05469,0 -0.101563,0.043 -0.101563,0.10157 v 10 c 0,0.0547 0.04297,0.10156 0.101563,0.10156 h 5 c -0.05469,0 -0.101563,-0.043 -0.101563,-0.10156 l 10e-7,10 c 0,0.0547 0.04297,0.10156 0.101562,0.10156 v 0" />
      </g>
      <rect
         transform="rotate(90)"
         y="-1240.6945"
         x="-577.19366"
         height="76.364975"
         width="17.393007"
         id="rect191-6-5"
         style="fill:none;stroke:#ff0000;stroke-width:1.11911869;stroke-miterlimit:4;stroke-dasharray:none;stroke-dashoffset:0;stroke-opacity:1" />
      <rect
         transform="rotate(90)"
         y="-1052.0566"
         x="-576.96625"
         height="38.883091"
         width="17.7064"
         id="rect191-9-2"
         style="fill:none;stroke:#ff0000;stroke-width:0.80572569;stroke-miterlimit:4;stroke-dasharray:none;stroke-dashoffset:0;stroke-opacity:1" />
      <rect
         transform="rotate(90)"
         y="-901.05731"
         x="-577.60321"
         height="38.883091"
         width="17.7064"
         id="rect191-6-2-1"
         style="fill:none;stroke:#ff0000;stroke-width:0.80572569;stroke-miterlimit:4;stroke-dasharray:none;stroke-dashoffset:0;stroke-opacity:1" />
      <rect
         transform="rotate(90)"
         y="-750.05798"
         x="-577.21912"
         height="38.883091"
         width="17.7064"
         id="rect191-9-0-7"
         style="fill:none;stroke:#ff0000;stroke-width:0.80572569;stroke-miterlimit:4;stroke-dasharray:none;stroke-dashoffset:0;stroke-opacity:1" />
      <rect
         transform="rotate(90)"
         y="-599.05872"
         x="-577.60321"
         height="38.883091"
         width="17.7064"
         id="rect191-6-6-9"
         style="fill:none;stroke:#ff0000;stroke-width:0.80572569;stroke-miterlimit:4;stroke-dasharray:none;stroke-dashoffset:0;stroke-opacity:1" />
      <rect
         transform="rotate(90)"
         y="-448.05933"
         x="-577.21912"
         height="38.883091"
         width="17.7064"
         id="rect191-9-6-6"
         style="fill:none;stroke:#ff0000;stroke-width:0.80572569;stroke-miterlimit:4;stroke-dasharray:none;stroke-dashoffset:0;stroke-opacity:1" />
      <rect
         transform="rotate(90)"
         y="-297.06"
         x="-577.21912"
         height="38.883091"
         width="17.7064"
         id="rect191-6-1-6"
         style="fill:none;stroke:#ff0000;stroke-width:0.80572569;stroke-miterlimit:4;stroke-dasharray:none;stroke-dashoffset:0;stroke-opacity:1" />
      <rect
         transform="rotate(90)"
         y="-148.64444"
         x="-577.06244"
         height="76.364975"
         width="17.393007"
         id="rect191-2-8-2"
         style="fill:none;stroke:#ff0000;stroke-width:1.11911857;stroke-miterlimit:4;stroke-dasharray:none;stroke-dashoffset:0;stroke-opacity:1" />
    </g>
    <g
       id="g1084"
       style="stroke:#ff0000">
      <path
         d="m 1324.4606,-1551.4272 v 56.693 c 0,-0.2068 0.1626,-0.3839 0.3839,-0.3839 h -18.8976 c -0.2068,0 -0.3839,0.1625 -0.3839,0.3839 v 37.7952 c 0,0.2068 0.1625,0.3839 0.3839,0.3839 h 18.8976 c -0.2068,0 -0.3839,-0.1625 -0.3839,-0.3839 v 37.7953 c 0,-0.2067 0.1626,-0.3838 0.3839,-0.3838 h -18.8976 c -0.2068,0 -0.3839,0.1625 -0.3839,0.3838 v 37.7953 c 0,0.2067 0.1625,0.3838 0.3839,0.3838 h 18.8976 c -0.2068,0 -0.3839,-0.1625 -0.3839,-0.3838 v 37.7953 c 0,-0.2068 0.1626,-0.3839 0.3839,-0.3839 h -18.8976 c -0.2068,0 -0.3839,0.1625 -0.3839,0.3839 v 37.7952 c 0,0.2068 0.1625,0.3839 0.3839,0.3839 h 18.8976 c -0.2068,0 -0.3839,-0.1625 -0.3839,-0.3839 v 37.7953 c 0,-0.2067 0.1626,-0.3838 0.3839,-0.3838 h -18.8976 c -0.2068,0 -0.3839,0.1625 -0.3839,0.3838 v 37.7953 c 0,0.2067 0.1625,0.3838 0.3839,0.3838 h 18.8976 c -0.2068,0 -0.3839,-0.1625 -0.3839,-0.3838 v 37.7953 c 0,-0.2068 0.1626,-0.3839 0.3839,-0.3839 h -18.8976 c -0.2068,0 -0.3839,0.1625 -0.3839,0.3839 v 37.7952 c 0,0.2068 0.1625,0.3839 0.3839,0.3839 h 18.8976 c -0.2068,0 -0.3839,-0.1625 -0.3839,-0.3839 v 37.7953 c 0,-0.2067 0.1626,-0.3838 0.3839,-0.3838 h -18.8976 c -0.2068,0 -0.3839,0.1625 -0.3839,0.3838 v 37.7953 c 0,0.2067 0.1625,0.3838 0.3839,0.3838 h 18.8976 c -0.2068,0 -0.3839,-0.1625 -0.3839,-0.3838 v 37.7953 c 0,-0.2068 0.1626,-0.3839 0.3839,-0.3839 h -18.8976 c -0.2068,0 -0.3839,0.1625 -0.3839,0.3839 v 37.7952 c 0,0.2068 0.1625,0.3839 0.3839,0.3839 h 18.8976 c -0.2068,0 -0.3839,-0.1625 -0.3839,-0.3839 v 37.7953 c 0,-0.20674 0.1626,-0.38385 0.3839,-0.38385 h -18.8976 c -0.2068,0 -0.3839,0.16252 -0.3839,0.38385 v 37.79528 c 0,0.20674 0.1625,0.38384 0.3839,0.38384 h 18.8976 c -0.2068,0 -0.3839,-0.16252 -0.3839,-0.38384 v 37.79527 c 0,-0.20674 0.1626,-0.38385 0.3839,-0.38385 h -18.8976 c -0.2068,0 -0.3839,0.16252 -0.3839,0.38385 v 37.79528 c 0,0.20674 0.1625,0.38384 0.3839,0.38384 h 18.8976 c -0.2068,0 -0.3839,-0.16252 -0.3839,-0.38384 v 37.79527 c 0,-0.20674 0.1626,-0.38385 0.3839,-0.38385 h -18.8976 c -0.2068,0 -0.3839,0.16252 -0.3839,0.38385 v 37.79528 c 0,0.20674 0.1625,0.38384 0.3839,0.38384 h 18.8976 c -0.2068,0 -0.3839,-0.16252 -0.3839,-0.38384 v 37.79527 c 0,-0.20674 0.1626,-0.38385 0.3839,-0.38385 h -18.8976 c -0.2068,0 -0.3839,0.16252 -0.3839,0.38385 v 37.79528 c 0,0.20674 0.1625,0.38384 0.3839,0.38384 h 18.8976 c -0.2068,0 -0.3839,-0.16252 -0.3839,-0.38384 v 37.79527 c 0,-0.20674 0.1626,-0.38385 0.3839,-0.38385 h -18.8976 c -0.2068,0 -0.3839,0.16252 -0.3839,0.38385 v 37.79528 c 0,0.20674 0.1625,0.38384 0.3839,0.38384 h 18.8976 c -0.2068,0 -0.3839,-0.16252 -0.3839,-0.38384 v 37.79527 c 0,-0.20674 0.1626,-0.38385 0.3839,-0.38385 h -18.8976 c -0.2068,0 -0.3839,0.16252 -0.3839,0.38385 v 37.79528 c 0,0.20674 0.1625,0.38384 0.3839,0.38384 h 18.8976 c -0.2068,0 -0.3839,-0.16252 -0.3839,-0.38384 v 37.79527 c 0,-0.20674 0.1626,-0.38385 0.3839,-0.38385 h -18.8976 c -0.2068,0 -0.3839,0.16252 -0.3839,0.38385 v 37.79528 c 0,0.20674 0.1625,0.38384 0.3839,0.38384 h 18.8976 c -0.2068,0 -0.3839,-0.16252 -0.3839,-0.38384 v 37.79527 c 0,-0.20674 0.1626,-0.38385 0.3839,-0.38385 h -18.8976 c -0.2068,0 -0.3839,0.16252 -0.3839,0.38385 v 37.79528 c 0,0.20674 0.1625,0.38384 0.3839,0.38384 h 18.8976 c -0.2068,0 -0.3839,-0.16252 -0.3839,-0.38384 v 37.79527 c 0,-0.20674 0.1626,-0.38385 0.3839,-0.38385 h -18.8976 c -0.2068,0 -0.3839,0.16252 -0.3839,0.38385 v 37.79528 c 0,0.20674 0.1625,0.38384 0.3839,0.38384 h 18.8976 c -0.2068,0 -0.3839,-0.16252 -0.3839,-0.38384 v 37.79527 c 0,-0.20674 0.1626,-0.38385 0.3839,-0.38385 h -18.8976 c -0.2068,0 -0.3839,0.16252 -0.3839,0.38385 v 37.79528 c 0,0.20674 0.1625,0.38384 0.3839,0.38384 h 18.8976 c -0.2068,0 -0.3839,-0.16252 -0.3839,-0.38384 v 37.79527 c 0,-0.20674 0.1626,-0.38385 0.3839,-0.38385 h -18.8976 c -0.2068,0 -0.3839,0.16252 -0.3839,0.38385 v 37.79528 c 0,0.20674 0.1625,0.38384 0.3839,0.38384 h 18.8976 c -0.2068,0 -0.3839,-0.16252 -0.3839,-0.38384 v 37.79527 c 0,-0.20674 0.1626,-0.38385 0.3839,-0.38385 h -18.8976 c -0.2068,0 -0.3839,0.16252 -0.3839,0.38385 v 37.795276 c 0,0.20674 0.1625,0.383848 0.3839,0.383848 h 18.8976 c -0.2068,0 -0.3839,-0.162519 -0.3839,-0.383848 v 37.795275 c 0,-0.206741 0.1626,-0.383849 0.3839,-0.383849 h -18.8976 c -0.2068,0 -0.3839,0.162519 -0.3839,0.383849 v 37.795275 c 0,0.20674 0.1625,0.383848 0.3839,0.383848 h 18.8976 c -0.2068,0 -0.3839,-0.162519 -0.3839,-0.383848 v 37.795275 c 0,-0.206741 0.1626,-0.383849 0.3839,-0.383849 h -18.8976 c -0.2068,0 -0.3839,0.162519 -0.3839,0.383849 v 37.795275 c 0,0.20674 0.1625,0.383848 0.3839,0.383848 h 18.8976 c -0.2068,0 -0.3839,-0.162519 -0.3839,-0.383848 v 37.795275 c 0,-0.207874 0.1626,-0.384 0.3839,-0.384 h -18.8976 c -0.2068,0 -0.3839,0.162519 -0.3839,0.384 v 37.795279 c 0,0.20787 0.1625,0.384 0.3839,0.384 h 18.8976 c -0.2068,0 -0.3839,-0.16252 -0.3839,-0.384 v 37.79527 c 0,-0.20787 0.1626,-0.384 0.3839,-0.384 h -18.8976 c -0.2068,0 -0.3839,0.16252 -0.3839,0.384 v 37.79528 c 0,0.20787 0.1625,0.384 0.3839,0.384 h 18.8976 c -0.2068,0 -0.3839,-0.16252 -0.3839,-0.384 v 37.79527 c 0,-0.20787 0.1626,-0.384 0.3839,-0.384 h -18.8976 c -0.2068,0 -0.3839,0.16252 -0.3839,0.384 v 37.79528 c 0,0.20787 0.1625,0.384 0.3839,0.384 h 18.8976 c -0.2068,0 -0.3839,-0.16252 -0.3839,-0.384 v 37.79527 c 0,-0.20787 0.1626,-0.384 0.3839,-0.384 h -18.8976 c -0.2068,0 -0.3839,0.16252 -0.3839,0.384 v 37.79528 c 0,0.20787 0.1625,0.384 0.3839,0.384 h 18.8976 c -0.2068,0 -0.3839,-0.16252 -0.3839,-0.384 v 37.79527 c 0,-0.20787 0.1626,-0.384 0.3839,-0.384 h -18.8976 c -0.2068,0 -0.3839,0.16252 -0.3839,0.384 v 37.79528 c 0,0.20787 0.1625,0.384 0.3839,0.384 h 18.8976 c -0.2068,0 -0.3839,-0.16252 -0.3839,-0.384 v 56.69291 c 0,0.20787 0.1626,0.384 0.3839,0.384 v 0 h 37.7953 c -0.2068,0 -0.3839,-0.16252 -0.3839,-0.384 v 18.89764 c 0,0.20787 0.1625,0.384 0.3839,0.384 h 37.7952 c 0.2068,0 0.3839,-0.16252 0.3839,-0.384 v -18.89764 c 0,0.20787 -0.1625,0.384 -0.3839,0.384 h 37.7953 c -0.2067,0 -0.3838,-0.16252 -0.3838,-0.384 v 18.89764 c 0,0.20787 0.1625,0.384 0.3838,0.384 h 37.7953 c 0.2067,0 0.3839,-0.16252 0.3839,-0.384 v -18.89764 c 0,0.20787 -0.1625,0.384 -0.3839,0.384 h 37.7953 c -0.2068,0 -0.3839,-0.16252 -0.3839,-0.384 v 18.89764 c 0,0.20787 0.1625,0.384 0.3839,0.384 h 37.7952 c 0.2068,0 0.3839,-0.16252 0.3839,-0.384 v -18.89764 c 0,0.20787 -0.1625,0.384 -0.3839,0.384 h 37.7953 c -0.2067,0 -0.3838,-0.16252 -0.3838,-0.384 v 18.89764 c 0,0.20787 0.1625,0.384 0.3838,0.384 h 37.7953 c 0.2067,0 0.3839,-0.16252 0.3839,-0.384 v -18.89764 c 0,0.20787 -0.1625,0.384 -0.3839,0.384 h 37.7953 c -0.2068,0 -0.3839,-0.16252 -0.3839,-0.384 v 18.89764 c 0,0.20787 0.1625,0.384 0.3839,0.384 h 37.7952 c 0.2068,0 0.3839,-0.16252 0.3839,-0.384 v -18.89764 c 0,0.20787 -0.1625,0.384 -0.3839,0.384 h 37.7953 c -0.2067,0 -0.3838,-0.16252 -0.3838,-0.384 v 18.89764 c 0,0.20787 0.1625,0.384 0.3838,0.384 h 37.7953 c 0.2067,0 0.3839,-0.16252 0.3839,-0.384 v -18.89764 c 0,0.20787 -0.1625,0.384 -0.3839,0.384 h 37.7953 c -0.2068,0 -0.3839,-0.16252 -0.3839,-0.384 v 18.89764 c 0,0.20787 0.1625,0.384 0.3839,0.384 h 37.7952 c 0.2068,0 0.3839,-0.16252 0.3839,-0.384 v -18.89764 c 0,0.20787 -0.1625,0.384 -0.3839,0.384 h 37.7953 c -0.2067,0 -0.3838,-0.16252 -0.3838,-0.384 v 18.89764 c 0,0.20787 0.1625,0.384 0.3838,0.384 h 37.7953 c 0.2067,0 0.3838,-0.16252 0.3838,-0.384 v -18.89764 c 0,0.20787 -0.1625,0.384 -0.3838,0.384 h 37.7953 c -0.2068,0 -0.3839,-0.16252 -0.3839,-0.384 v 18.89764 c 0,0.20787 0.1625,0.384 0.3839,0.384 h 37.7952 c 0.2068,0 0.3839,-0.16252 0.3839,-0.384 v -18.89764 c 0,0.20787 -0.1625,0.384 -0.3839,0.384 h 37.7953 c -0.2067,0 -0.3838,-0.16252 -0.3838,-0.384 v 18.89764 c 0,0.20787 0.1625,0.384 0.3838,0.384 h 37.7953 c 0.2067,0 0.3838,-0.16252 0.3838,-0.384 v -18.89764 c 0,0.20787 -0.1625,0.384 -0.3838,0.384 h 37.7953 c -0.2068,0 -0.3839,-0.16252 -0.3839,-0.384 v 18.89764 c 0,0.20787 0.1625,0.384 0.3839,0.384 h 37.7952 c 0.2068,0 0.3839,-0.16252 0.3839,-0.384 v -18.89764 c 0,0.20787 -0.1625,0.384 -0.3839,0.384 h 37.7953 c -0.2067,0 -0.3838,-0.16252 -0.3838,-0.384 v 18.89764 c 0,0.20787 0.1625,0.384 0.3838,0.384 h 37.7953 c 0.2067,0 0.3838,-0.16252 0.3838,-0.384 v -18.89764 c 0,0.20787 -0.1625,0.384 -0.3838,0.384 h 37.7953 c -0.2067,0 -0.3839,-0.16252 -0.3839,-0.384 v 18.89764 c 0,0.20787 0.1625,0.384 0.3839,0.384 h 37.7952 c 0.2068,0 0.3839,-0.16252 0.3839,-0.384 v -18.89764 c 0,0.20787 -0.1625,0.384 -0.3839,0.384 h 37.7953 c -0.2067,0 -0.3838,-0.16252 -0.3838,-0.384 v 18.89764 c 0,0.20787 0.1625,0.384 0.3838,0.384 h 37.7953 c 0.2067,0 0.3838,-0.16252 0.3838,-0.384 v -18.89764 c 0,0.20787 -0.1625,0.384 -0.3838,0.384 h 37.7953 c -0.2067,0 -0.3839,-0.16252 -0.3839,-0.384 v 18.89764 c 0,0.20787 0.1625,0.384 0.3839,0.384 h 37.7952 c 0.2068,0 0.3839,-0.16252 0.3839,-0.384 v -18.89764 c 0,0.20787 -0.1625,0.384 -0.3839,0.384 h 37.7953 c 0.2068,0 0.3839,-0.16252 0.3839,-0.384 v 0 -56.69291 c 0,0.20787 -0.1626,0.384 -0.3839,0.384 h 18.8977 c 0.2067,0 0.3838,-0.16252 0.3838,-0.384 V 395.0295 c 0,-0.20787 -0.1625,-0.384 -0.3838,-0.384 h -18.8977 c 0.2068,0 0.3839,0.16252 0.3839,0.384 v -37.79527 c 0,0.20787 -0.1626,0.384 -0.3839,0.384 h 18.8977 c 0.2067,0 0.3838,-0.16252 0.3838,-0.384 v -37.79528 c 0,-0.20787 -0.1625,-0.384 -0.3838,-0.384 h -18.8977 c 0.2068,0 0.3839,0.16252 0.3839,0.384 v -37.79527 c 0,0.20787 -0.1626,0.384 -0.3839,0.384 h 18.8977 c 0.2067,0 0.3838,-0.16252 0.3838,-0.384 V 243.8484 c 0,-0.20787 -0.1625,-0.384 -0.3838,-0.384 h -18.8977 c 0.2068,0 0.3839,0.16252 0.3839,0.384 v -37.79527 c 0,0.20787 -0.1626,0.384 -0.3839,0.384 h 18.8977 c 0.2067,0 0.3838,-0.16252 0.3838,-0.384 v -37.79528 c 0,-0.20787 -0.1625,-0.384 -0.3838,-0.384 h -18.8977 c 0.2068,0 0.3839,0.16252 0.3839,0.384 v -37.79527 c 0,0.20787 -0.1626,0.384 -0.3839,0.384 h 18.8977 c 0.2067,0 0.3838,-0.16252 0.3838,-0.384 V 92.667301 c 0,-0.207874 -0.1625,-0.384 -0.3838,-0.384 h -18.8977 c 0.2068,0 0.3839,0.162519 0.3839,0.384 V 54.872026 c 0,0.20674 -0.1626,0.383848 -0.3839,0.383848 h 18.8977 c 0.2067,0 0.3838,-0.162519 0.3838,-0.383848 V 17.076751 c 0,-0.206741 -0.1625,-0.383849 -0.3838,-0.383849 h -18.8977 c 0.2068,0 0.3839,0.162519 0.3839,0.383849 v -37.795275 c 0,0.20674 -0.1626,0.383848 -0.3839,0.383848 h 18.8977 c 0.2067,0 0.3838,-0.162519 0.3838,-0.383848 v -37.795275 c 0,-0.206741 -0.1625,-0.383849 -0.3838,-0.383849 h -18.8977 c 0.2068,0 0.3839,0.162519 0.3839,0.383849 v -37.795275 c 0,0.20674 -0.1626,0.383848 -0.3839,0.383848 h 18.8977 c 0.2067,0 0.3838,-0.162519 0.3838,-0.383848 v -37.795276 c 0,-0.20674 -0.1625,-0.38385 -0.3838,-0.38385 h -18.8977 c 0.2068,0 0.3839,0.16252 0.3839,0.38385 v -37.79527 c 0,0.20674 -0.1626,0.38384 -0.3839,0.38384 h 18.8977 c 0.2067,0 0.3838,-0.16252 0.3838,-0.38384 v -37.79528 c 0,-0.20674 -0.1625,-0.38385 -0.3838,-0.38385 h -18.8977 c 0.2068,0 0.3839,0.16252 0.3839,0.38385 v -37.79527 c 0,0.20674 -0.1626,0.38384 -0.3839,0.38384 h 18.8977 c 0.2067,0 0.3838,-0.16252 0.3838,-0.38384 v -37.79528 c 0,-0.20674 -0.1625,-0.38385 -0.3838,-0.38385 h -18.8977 c 0.2068,0 0.3839,0.16252 0.3839,0.38385 v -37.79527 c 0,0.20674 -0.1626,0.38384 -0.3839,0.38384 h 18.8977 c 0.2067,0 0.3838,-0.16252 0.3838,-0.38384 V -360.876 c 0,-0.20674 -0.1625,-0.38385 -0.3838,-0.38385 h -18.8977 c 0.2068,0 0.3839,0.16252 0.3839,0.38385 v -37.79527 c 0,0.20674 -0.1626,0.38384 -0.3839,0.38384 h 18.8977 c 0.2067,0 0.3838,-0.16252 0.3838,-0.38384 v -37.79528 c 0,-0.20674 -0.1625,-0.38385 -0.3838,-0.38385 h -18.8977 c 0.2068,0 0.3839,0.16252 0.3839,0.38385 v -37.79527 c 0,0.20674 -0.1626,0.38384 -0.3839,0.38384 h 18.8977 c 0.2067,0 0.3838,-0.16252 0.3838,-0.38384 v -37.79528 c 0,-0.20674 -0.1625,-0.38385 -0.3838,-0.38385 h -18.8977 c 0.2068,0 0.3839,0.16252 0.3839,0.38385 v -37.79527 c 0,0.20674 -0.1626,0.38384 -0.3839,0.38384 h 18.8977 c 0.2067,0 0.3838,-0.16252 0.3838,-0.38384 v -37.79528 c 0,-0.20674 -0.1625,-0.38385 -0.3838,-0.38385 h -18.8977 c 0.2068,0 0.3839,0.16252 0.3839,0.38385 v -37.79527 c 0,0.20674 -0.1626,0.38384 -0.3839,0.38384 h 18.8977 c 0.2067,0 0.3838,-0.16252 0.3838,-0.38384 v -37.79528 c 0,-0.20674 -0.1625,-0.38385 -0.3838,-0.38385 h -18.8977 c 0.2068,0 0.3839,0.16252 0.3839,0.38385 v -37.79527 c 0,0.20674 -0.1626,0.38384 -0.3839,0.38384 h 18.8977 c 0.2067,0 0.3838,-0.16252 0.3838,-0.38384 v -37.79528 c 0,-0.20674 -0.1625,-0.38385 -0.3838,-0.38385 h -18.8977 c 0.2068,0 0.3839,0.16252 0.3839,0.38385 v -37.79527 c 0,0.20674 -0.1626,0.38384 -0.3839,0.38384 h 18.8977 c 0.2067,0 0.3838,-0.16252 0.3838,-0.38384 v -37.79528 c 0,-0.20674 -0.1625,-0.38385 -0.3838,-0.38385 h -18.8977 c 0.2068,0 0.3839,0.16252 0.3839,0.38385 v -37.79527 c 0,0.20674 -0.1626,0.38384 -0.3839,0.38384 h 18.8977 c 0.2067,0 0.3838,-0.16252 0.3838,-0.38384 v -37.79528 c 0,-0.20674 -0.1625,-0.38385 -0.3838,-0.38385 h -18.8977 c 0.2068,0 0.3839,0.16252 0.3839,0.38385 v -37.79527 c 0,0.20674 -0.1626,0.38384 -0.3839,0.38384 h 18.8977 c 0.2067,0 0.3838,-0.16252 0.3838,-0.38384 v -37.79528 c 0,-0.20674 -0.1625,-0.38385 -0.3838,-0.38385 h -18.8977 c 0.2068,0 0.3839,0.16252 0.3839,0.38385 v -37.7953 c 0,0.2068 -0.1626,0.3839 -0.3839,0.3839 h 18.8977 c 0.2067,0 0.3838,-0.1625 0.3838,-0.3839 v -37.7952 c 0,-0.2068 -0.1625,-0.3839 -0.3838,-0.3839 h -18.8977 c 0.2068,0 0.3839,0.1625 0.3839,0.3839 v -37.7953 c 0,0.2067 -0.1626,0.3838 -0.3839,0.3838 h 18.8977 c 0.2067,0 0.3838,-0.1625 0.3838,-0.3838 v -37.7953 c 0,-0.2067 -0.1625,-0.3838 -0.3838,-0.3838 h -18.8977 c 0.2068,0 0.3839,0.1625 0.3839,0.3838 v -37.7953 c 0,0.2068 -0.1626,0.3839 -0.3839,0.3839 h 18.8977 c 0.2067,0 0.3838,-0.1625 0.3838,-0.3839 v -37.7952 c 0,-0.2068 -0.1625,-0.3839 -0.3838,-0.3839 h -18.8977 c 0.2068,0 0.3839,0.1625 0.3839,0.3839 v -37.7953 c 0,0.2067 -0.1626,0.3838 -0.3839,0.3838 h 18.8977 c 0.2067,0 0.3838,-0.1625 0.3838,-0.3838 v -37.7953 c 0,-0.2067 -0.1625,-0.3838 -0.3838,-0.3838 h -18.8977 c 0.2068,0 0.3839,0.1625 0.3839,0.3838 v -37.7953 c 0,0.2068 -0.1626,0.3839 -0.3839,0.3839 h 18.8977 c 0.2067,0 0.3838,-0.1625 0.3838,-0.3839 v -37.7952 c 0,-0.2068 -0.1625,-0.3839 -0.3838,-0.3839 h -18.8977 c 0.2068,0 0.3839,0.1625 0.3839,0.3839 v -37.7953 c 0,0.2067 -0.1626,0.3838 -0.3839,0.3838 h 18.8977 c 0.2067,0 0.3838,-0.1625 0.3838,-0.3838 v -37.7953 c 0,-0.2067 -0.1625,-0.3838 -0.3838,-0.3838 h -18.8977 c 0.2068,0 0.3839,0.1625 0.3839,0.3838 v -37.7953 c 0,0.2068 -0.1626,0.3839 -0.3839,0.3839 h 18.8977 c 0.2067,0 0.3838,-0.1625 0.3838,-0.3839 v -37.7952 c 0,-0.2068 -0.1625,-0.3839 -0.3838,-0.3839 h -18.8977 c 0.2068,0 0.3839,0.1625 0.3839,0.3839 v -56.693 c 0,-0.2067 -0.1626,-0.3838 -0.3839,-0.3838 v 0 h -37.7953 c 0.2068,0 0.3839,0.1625 0.3839,0.3838 v -18.8976 c 0,-0.2067 -0.1625,-0.3838 -0.3839,-0.3838 h -37.7952 c -0.2067,0 -0.3839,0.1625 -0.3839,0.3838 v 18.8976 c 0,-0.2067 0.1625,-0.3838 0.3839,-0.3838 h -37.7953 c 0.2067,0 0.3838,0.1625 0.3838,0.3838 v -18.8976 c 0,-0.2067 -0.1625,-0.3838 -0.3838,-0.3838 h -37.7953 c -0.2067,0 -0.3838,0.1625 -0.3838,0.3838 v 18.8976 c 0,-0.2067 0.1625,-0.3838 0.3838,-0.3838 h -37.7953 c 0.2068,0 0.3839,0.1625 0.3839,0.3838 v -18.8976 c 0,-0.2067 -0.1625,-0.3838 -0.3839,-0.3838 h -37.7952 c -0.2067,0 -0.3839,0.1625 -0.3839,0.3838 v 18.8976 c 0,-0.2067 0.1625,-0.3838 0.3839,-0.3838 h -37.7953 c 0.2067,0 0.3838,0.1625 0.3838,0.3838 v -18.8976 c 0,-0.2067 -0.1625,-0.3838 -0.3838,-0.3838 h -37.7953 c -0.2067,0 -0.3838,0.1625 -0.3838,0.3838 v 18.8976 c 0,-0.2067 0.1625,-0.3838 0.3838,-0.3838 h -37.7953 c 0.2068,0 0.3839,0.1625 0.3839,0.3838 v -18.8976 c 0,-0.2067 -0.1625,-0.3838 -0.3839,-0.3838 h -37.7952 c -0.2068,0 -0.3839,0.1625 -0.3839,0.3838 v 18.8976 c 0,-0.2067 0.1625,-0.3838 0.3839,-0.3838 H 2080.75 c 0.2067,0 0.3838,0.1625 0.3838,0.3838 v -18.8976 c 0,-0.2067 -0.1625,-0.3838 -0.3838,-0.3838 h -37.7953 c -0.2067,0 -0.3838,0.1625 -0.3838,0.3838 v 18.8976 c 0,-0.2067 0.1625,-0.3838 0.3838,-0.3838 h -37.7953 c 0.2068,0 0.3839,0.1625 0.3839,0.3838 v -18.8976 c 0,-0.2067 -0.1625,-0.3838 -0.3839,-0.3838 h -37.7952 c -0.2068,0 -0.3839,0.1625 -0.3839,0.3838 v 18.8976 c 0,-0.2067 0.1625,-0.3838 0.3839,-0.3838 h -37.7953 c 0.2067,0 0.3838,0.1625 0.3838,0.3838 v -18.8976 c 0,-0.2067 -0.1625,-0.3838 -0.3838,-0.3838 h -37.7953 c -0.2067,0 -0.3838,0.1625 -0.3838,0.3838 v 18.8976 c 0,-0.2067 0.1625,-0.3838 0.3838,-0.3838 h -37.7953 c 0.2068,0 0.3839,0.1625 0.3839,0.3838 v -18.8976 c 0,-0.2067 -0.1625,-0.3838 -0.3839,-0.3838 h -37.7952 c -0.2068,0 -0.3839,0.1625 -0.3839,0.3838 v 18.8976 c 0,-0.2067 0.1625,-0.3838 0.3839,-0.3838 h -37.7953 c 0.2067,0 0.3839,0.1625 0.3839,0.3838 v -18.8976 c 0,-0.2067 -0.1625,-0.3838 -0.3839,-0.3838 h -37.7953 c -0.2067,0 -0.3838,0.1625 -0.3838,0.3838 v 18.8976 c 0,-0.2067 0.1625,-0.3838 0.3838,-0.3838 h -37.7953 c 0.2068,0 0.3839,0.1625 0.3839,0.3838 v -18.8976 c 0,-0.2067 -0.1625,-0.3838 -0.3839,-0.3838 h -37.7952 c -0.2068,0 -0.3839,0.1625 -0.3839,0.3838 v 18.8976 c 0,-0.2067 0.1625,-0.3838 0.3839,-0.3838 h -37.7953 c 0.2067,0 0.3839,0.1625 0.3839,0.3838 v -18.8976 c 0,-0.2067 -0.1625,-0.3838 -0.3839,-0.3838 h -37.7953 c -0.2067,0 -0.3838,0.1625 -0.3838,0.3838 v 18.8976 c 0,-0.2067 0.1625,-0.3838 0.3838,-0.3838 h -37.7953 c 0.2068,0 0.3839,0.1625 0.3839,0.3838 v -18.8976 c 0,-0.2067 -0.1625,-0.3838 -0.3839,-0.3838 h -37.7952 c -0.2068,0 -0.3839,0.1625 -0.3839,0.3838 v 18.8976 c 0,-0.2067 0.1625,-0.3838 0.3839,-0.3838 h -37.7953 c 0.2067,0 0.3839,0.1625 0.3839,0.3838 v -18.8976 c 0,-0.2067 -0.1625,-0.3838 -0.3839,-0.3838 h -37.7953 c -0.2067,0 -0.3838,0.1625 -0.3838,0.3838 v 18.8976 c 0,-0.2067 0.1625,-0.3838 0.3838,-0.3838 h -37.7953 c 0.2068,0 0.3839,0.1625 0.3839,0.3838 v -18.8976 c 0,-0.2067 -0.1625,-0.3838 -0.3839,-0.3838 h -37.7952 c -0.2068,0 -0.3839,0.1625 -0.3839,0.3838 v 18.8976 c 0,-0.2067 0.1625,-0.3838 0.3839,-0.3838 h -37.7953 c -0.2068,0 -0.3839,0.1625 -0.3839,0.3838 v 0"
         style="fill:none;stroke:#ff0000;stroke-width:0.75590551;stroke-linecap:butt;stroke-linejoin:miter;stroke-miterlimit:10;stroke-opacity:1"
         id="path44"
         inkscape:connector-curvature="0" />
      <rect
         transform="rotate(90)"
         y="-2493.2463"
         x="-539.56848"
         height="74.665932"
         width="17.733286"
         id="rect191-6"
         style="fill:none;stroke:#ff0000;stroke-width:1.11737132;stroke-miterlimit:4;stroke-dasharray:none;stroke-dashoffset:0;stroke-opacity:1" />
      <rect
         transform="rotate(90)"
         y="-2306.4778"
         x="-539.17096"
         height="38.883091"
         width="17.7064"
         id="rect191-9"
         style="fill:none;stroke:#ff0000;stroke-width:0.80572569;stroke-miterlimit:4;stroke-dasharray:none;stroke-dashoffset:0;stroke-opacity:1" />
      <rect
         transform="rotate(90)"
         y="-2155.4783"
         x="-539.80792"
         height="38.883091"
         width="17.7064"
         id="rect191-6-2"
         style="fill:none;stroke:#ff0000;stroke-width:0.80572569;stroke-miterlimit:4;stroke-dasharray:none;stroke-dashoffset:0;stroke-opacity:1" />
      <rect
         transform="rotate(90)"
         y="-2004.479"
         x="-539.42383"
         height="38.883091"
         width="17.7064"
         id="rect191-9-0"
         style="fill:none;stroke:#ff0000;stroke-width:0.80572569;stroke-miterlimit:4;stroke-dasharray:none;stroke-dashoffset:0;stroke-opacity:1" />
      <rect
         transform="rotate(90)"
         y="-1853.4797"
         x="-539.80792"
         height="38.883091"
         width="17.7064"
         id="rect191-6-6"
         style="fill:none;stroke:#ff0000;stroke-width:0.80572569;stroke-miterlimit:4;stroke-dasharray:none;stroke-dashoffset:0;stroke-opacity:1" />
      <rect
         transform="rotate(90)"
         y="-1702.4803"
         x="-539.42383"
         height="38.883091"
         width="17.7064"
         id="rect191-9-6"
         style="fill:none;stroke:#ff0000;stroke-width:0.80572569;stroke-miterlimit:4;stroke-dasharray:none;stroke-dashoffset:0;stroke-opacity:1" />
      <rect
         transform="rotate(90)"
         y="-1551.4811"
         x="-539.42383"
         height="38.883091"
         width="17.7064"
         id="rect191-6-1"
         style="fill:none;stroke:#ff0000;stroke-width:0.80572569;stroke-miterlimit:4;stroke-dasharray:none;stroke-dashoffset:0;stroke-opacity:1" />
      <rect
         transform="rotate(90)"
         y="-1401.3691"
         x="-539.26709"
         height="76.364975"
         width="17.393007"
         id="rect191-2-8"
         style="fill:none;stroke:#ff0000;stroke-width:1.11911869;stroke-miterlimit:4;stroke-dasharray:none;stroke-dashoffset:0;stroke-opacity:1" />
    </g>
    <g
       id="g203"
       transform="matrix(0,3.7795274,-3.7795274,0,2510.4959,-1452.2917)"
       style="stroke:#ff0000;">
      <g
         transform="matrix(0.35277777,0,0,-0.35277777,89.571108,149.1802)"
         id="g492"
         style="stroke:#ff0000">
        <path
           inkscape:connector-curvature="0"
           id="path494"
           style="fill:none;stroke:#ff0000;stroke-width:0.25;stroke-linecap:butt;stroke-linejoin:miter;stroke-miterlimit:10;stroke-dasharray:none;stroke-opacity:1"
           d="m 0,0 c 0,-22.309 -18.086,-40.393 -40.396,-40.393 -22.309,0 -40.394,18.084 -40.394,40.393 0,22.309 18.085,40.395 40.394,40.395 C -18.086,40.395 0,22.309 0,0 Z" />
      </g>
      <g
         transform="matrix(0.35277777,0,0,-0.35277777,122.80595,149.17949)"
         id="g500"
         style="stroke:#ff0000">
        <path
           inkscape:connector-curvature="0"
           id="path502"
           style="fill:none;stroke:#ff0000;stroke-width:0.25;stroke-linecap:butt;stroke-linejoin:miter;stroke-miterlimit:10;stroke-dasharray:none;stroke-opacity:1"
           d="m 0,0 c 0,-22.307 -18.084,-40.395 -40.392,-40.395 -22.308,0 -40.392,18.088 -40.392,40.395 0,22.309 18.084,40.393 40.392,40.393 C -18.084,40.393 0,22.309 0,0 Z" />
      </g>
      <g
         transform="matrix(0.35277777,0,0,-0.35277777,158.86471,149.17949)"
         id="g504"
         style="stroke:#ff0000">
        <path
           inkscape:connector-curvature="0"
           id="path506"
           style="fill:none;stroke:#ff0000;stroke-width:0.25;stroke-linecap:butt;stroke-linejoin:miter;stroke-miterlimit:10;stroke-dasharray:none;stroke-opacity:1"
           d="m 0,0 c 0,-22.311 -18.085,-40.395 -40.395,-40.395 -22.308,0 -40.393,18.084 -40.393,40.395 0,22.309 18.085,40.393 40.393,40.393 C -18.085,40.393 0,22.309 0,0 Z" />
      </g>
    </g>
    <circle
       style="opacity:0.95;fill:none;stroke:#ff0000;stroke-width:3;stroke-miterlimit:4;stroke-dasharray:none;stroke-dashoffset:0;stroke-opacity:1"
       id="path1106"
       cx="1946.6666"
       cy="-1381.4762"
       r="13.095238" />
    <flowRoot
       xml:space="preserve"
       id="flowRoot1144"
       style="font-style:normal;font-variant:normal;font-weight:bold;font-stretch:normal;font-size:64px;line-height:1.25;font-family:'Liberation Sans';-inkscape-font-specification:'Liberation Sans Bold';letter-spacing:0px;word-spacing:0px;opacity:0.98000004;fill:none;fill-opacity:1;stroke:#ff0000;stroke-opacity:1"
       transform="rotate(90,2927.5092,-342.27407)"><flowRegion
         id="flowRegion1146"
         style="fill:none;stroke:#ff0000;stroke-opacity:1"><rect
           id="rect1148"
           width="82.352943"
           height="82.352943"
           x="2076.4707"
           y="485.36359"
           style="fill:none;stroke:#ff0000;stroke-opacity:1" /></flowRegion><flowPara
         id="flowPara1150">A</flowPara></flowRoot>    <flowRoot
       xml:space="preserve"
       id="flowRoot1152"
       style="font-style:normal;font-variant:normal;font-weight:bold;font-stretch:normal;font-size:64px;line-height:1.25;font-family:'Liberation Sans';-inkscape-font-specification:'Liberation Sans Bold';letter-spacing:0px;word-spacing:0px;fill:none;fill-opacity:1;stroke:#ff0000;stroke-opacity:1"
       transform="rotate(90,2899.6752,-210.76498)"><flowRegion
         id="flowRegion1154"
         style="fill:none;stroke:#ff0000;stroke-opacity:1"><rect
           id="rect1156"
           width="132.35294"
           height="97.058823"
           x="2047.0588"
           y="585.36359"
           style="fill:none;stroke:#ff0000;stroke-opacity:1" /></flowRegion><flowPara
         id="flowPara1158">B</flowPara></flowRoot>    <flowRoot
       xml:space="preserve"
       id="flowRoot1160"
       style="font-style:normal;font-variant:normal;font-weight:bold;font-stretch:normal;font-size:64px;line-height:1.25;font-family:'Liberation Sans';-inkscape-font-specification:'Liberation Sans Bold';letter-spacing:0px;word-spacing:0px;fill:none;fill-opacity:1;stroke:#ff0000;stroke-opacity:1"
       transform="rotate(90,2902.9925,-64.348754)"><flowRegion
         id="flowRegion1162"
         style="fill:none;stroke:#ff0000;stroke-opacity:1"><rect
           id="rect1164"
           width="123.52941"
           height="114.70588"
           x="2038.2354"
           y="732.42242"
           style="fill:none;stroke:#ff0000;stroke-opacity:1" /></flowRegion><flowPara
         id="flowPara1166">C</flowPara></flowRoot>  </g>
</svg>
